<svg width="94" height="94" viewBox="0 0 94 94" fill="none" xmlns="http://www.w3.org/2000/svg">
<rect width="94" height="94" rx="12" fill="#6564DB"/>
<path d="M49.7168 74.4631C43.6044 75.5409 38.9885 75.028 35.8692 72.9243C32.7499 70.8207 30.7607 67.3332 29.9017 62.4616L26.6927 44.2624C25.8337 39.3909 26.5101 35.4333 28.7218 32.3897C30.9336 29.346 35.0956 27.2853 41.208 26.2075L57.3392 23.3632L58.6763 30.9462L42.5451 33.7906C40.0174 34.2363 38.2385 35.166 37.2084 36.5796C36.2241 37.9852 35.9589 39.9749 36.4127 42.5485L37.3487 47.8566L57.8918 44.2343L59.2289 51.8173L38.6858 55.4396L39.6218 60.7477C40.0675 63.2754 40.9972 65.0543 42.4109 66.0845C43.8624 67.0606 45.852 67.3258 48.3797 66.8801L64.6487 64.0114L65.9858 71.5944L49.7168 74.4631Z" fill="white"/>
</svg>
